<svg version="1.1" id="svg3823" xmlns:cc="http://creativecommons.org/ns#" xmlns:rdf="http://www.w3.org/1999/02/22-rdf-syntax-ns#" xmlns:dc="http://purl.org/dc/elements/1.1/" xmlns:svg="http://www.w3.org/2000/svg" xmlns="http://www.w3.org/2000/svg" xmlns:xlink="http://www.w3.org/1999/xlink" x="0px" y="0px" viewBox="50 -49.8 209.9 209.8" style="enable-background:new 50 -49.8 209.9 209.8;" xml:space="preserve">
 <style type="text/css">
  .st0{fill:url(#path3540_1_);}
	.st1{fill:url(#path3562_1_);}
	.st2{fill:url(#path3582_1_);}
	.st3{fill:url(#path3602_1_);}
	.st4{fill:url(#path3622_1_);}
 </style>
 <g>
  <g id="g3520" transform="matrix(1.25,0,0,-1.25,-229.7561,949.97469)">
   <g id="g3522">
    <g id="g3528">
     <g id="g3530">
      <linearGradient id="path3540_1_" gradientUnits="userSpaceOnUse" x1="269.3198" y1="668.7096" x2="270.3198" y2="668.7096" gradientTransform="matrix(-65.9218 55.315 55.315 65.9218 -18941.8809 -58254.75)">
       <stop offset="0" style="stop-color:#FEF3F6">
       </stop>
       <stop offset="0.7582" style="stop-color:#ED1849">
       </stop>
       <stop offset="1" style="stop-color:#ED1849">
       </stop>
      </linearGradient>
      <path id="path3540" class="st0" d="M223.8,723.4c0-2.6,0.1-5.2,0.4-7.7l0,0c1.9-18.1,10.4-34.2,23.1-45.9l0,0
						c-1.6,2.6-2.9,5.2-4.2,8l0,0c-10.4,12.3-16.8,28.2-16.8,45.5l0,0c0,1.8,0.1,3.5,0.2,5.2l0,0c1.3,17.3,8.8,32.9,20.3,44.5l0,0
						c12.7,12.7,30.2,20.6,49.5,20.6l0,0c10.6,0,20.6-2.4,29.6-6.6l0,0c3-0.5,5.9-1.1,8.8-1.9l0,0c-11.2,7-24.3,11.1-38.5,11.1l0,0
						C256.3,796.1,223.8,763.5,223.8,723.4">
      </path>
     </g>
    </g>
   </g>
  </g>
  <g id="g3542" transform="matrix(1.25,0,0,-1.25,-229.7561,949.97469)">
   <g id="g3544">
    <g id="g3550">
     <g id="g3552">
      <linearGradient id="path3562_1_" gradientUnits="userSpaceOnUse" x1="261.557" y1="674.2687" x2="262.557" y2="674.2687" gradientTransform="matrix(135.7172 -139.561 -139.561 -135.7172 58863.5195 128778.8281)">
       <stop offset="0" style="stop-color:#F0F7E7">
       </stop>
       <stop offset="0.236" style="stop-color:#8DC85A">
       </stop>
       <stop offset="1" style="stop-color:#007360">
       </stop>
      </linearGradient>
      <path id="path3562" class="st1" d="M236.2,710c0-43.1,34.8-78,77.8-78l0,0c42.9,0,77.8,34.9,77.8,78l0,0
						c0,43.1-34.8,78-77.8,78l0,0C271,787.9,236.2,753,236.2,710 M245.9,721.1c0,33.3,26.9,60.2,60.1,60.2l0,0
						c33.2,0,60.1-27,60.1-60.2l0,0c0-33.3-26.9-60.3-60.1-60.3l0,0C272.9,660.8,245.9,687.8,245.9,721.1">
      </path>
     </g>
    </g>
   </g>
  </g>
  <g id="g3564" transform="matrix(1.25,0,0,-1.25,-229.7561,949.97469)">
   <g id="g3566">
    <g id="g3572">
     <g id="g3574">
      <linearGradient id="path3582_1_" gradientUnits="userSpaceOnUse" x1="263.6475" y1="674.2043" x2="264.6475" y2="674.2043" gradientTransform="matrix(0 -272.1174 -272.1174 0 183768.7812 72573.5391)">
       <stop offset="0" style="stop-color:#FFFFFF">
       </stop>
       <stop offset="1" style="stop-color:#8ECA5E">
       </stop>
      </linearGradient>
      <path id="path3582" class="st2" d="M345.9,773c4.5-4.5,8.4-9.6,11.5-15.2l0,0c5.7-10.2,9-21.9,9-34.4l0,0
						c0-19.4-7.8-36.9-20.5-49.6l0,0c-12.7-12.7-30.2-20.6-49.5-20.6l0,0c-19.3,0-36.8,7.8-49.5,20.6l0,0c-1.3,1.3-2.6,2.7-3.8,4.1
						l0,0c1.2-2.8,2.6-5.4,4.2-8l0,0c12.9-11.9,30.1-19.2,49.1-19.2l0,0c40.1,0,72.5,32.6,72.5,72.8l0,0c0,8.4-1.4,16.4-4,23.9l0,0
						c-5.5,15.7-16.2,29-30.1,37.8l0,0c-2.9,0.8-5.8,1.4-8.8,1.9l0,0C333.4,783.5,340.2,778.8,345.9,773">
      </path>
     </g>
    </g>
   </g>
  </g>
  <g id="g3584" transform="matrix(1.25,0,0,-1.25,-229.7561,949.97469)">
   <g id="g3586">
    <g id="g3592">
     <g id="g3594">
      <linearGradient id="path3602_1_" gradientUnits="userSpaceOnUse" x1="265.4564" y1="666.1689" x2="266.4564" y2="666.1689" gradientTransform="matrix(-15.0892 85.5749 85.5749 15.0892 -52692.5312 -32038.1895)">
       <stop offset="0" style="stop-color:#E6F2F9">
       </stop>
       <stop offset="1" style="stop-color:#0079C1">
       </stop>
      </linearGradient>
      <path id="path3602" class="st3" d="M236.1,725.2c0-2.7,0.2-5.3,0.4-7.9l0,0c0.5,4.5,1.2,8.9,2.4,13.2l0,0
						c1.3,17.7,9,33.7,20.8,45.6l0,0c13,13,30.9,21.1,50.8,21.1l0,0c19.8,0,37.8-8.1,50.8-21.1l0,0c4.6-4.6,8.6-9.9,11.8-15.6l0,0
						c2.9-3.4,5.4-6.9,7.7-10.8l0,0c-10.1,29.2-37.8,50.1-70.3,50.1l0,0C269.5,799.8,236.1,766.4,236.1,725.2">
      </path>
     </g>
    </g>
   </g>
  </g>
  <g id="g3604" transform="matrix(1.25,0,0,-1.25,-229.7561,949.97469)">
   <g id="g3606">
    <g id="g3612">
     <g id="g3614">
      <linearGradient id="path3622_1_" gradientUnits="userSpaceOnUse" x1="263.4932" y1="676.6249" x2="264.4932" y2="676.6249" gradientTransform="matrix(0 -137.3896 -137.3896 0 93271.9844 36961.7539)">
       <stop offset="0" style="stop-color:#FFFFFF">
       </stop>
       <stop offset="1" style="stop-color:#BDE0A1">
       </stop>
      </linearGradient>
      <path id="path3622" class="st4" d="M382.4,725.2c0-19.9-8-37.9-21-50.9l0,0c-13-13-30.9-21.1-50.8-21.1l0,0
						c-19.9,0-37.8,8.1-50.8,21.1l0,0c-13,13-21,31-21,50.9l0,0c0,1.8,0.1,3.6,0.2,5.4l0,0c-1.2-4.3-2-8.7-2.4-13.2l0,0
						c4-37.5,35.6-66.7,74-66.7l0,0c41.1,0,74.4,33.4,74.4,74.6l0,0c0,8.6-1.4,16.9-4.1,24.6l0,0c-2.3,3.8-4.9,7.4-7.7,10.8l0,0
						C379,750.1,382.4,738,382.4,725.2">
      </path>
     </g>
    </g>
   </g>
  </g>
 </g>
</svg>