<svg xmlns:dc="http://purl.org/dc/elements/1.1/" xmlns:cc="http://creativecommons.org/ns#" xmlns:rdf="http://www.w3.org/1999/02/22-rdf-syntax-ns#" xmlns:svg="http://www.w3.org/2000/svg" xmlns="http://www.w3.org/2000/svg" xmlns:xlink="http://www.w3.org/1999/xlink" version="1.1" width="892.91339" height="216.85039" id="svg3823">
 <defs id="defs3825">
  <linearGradient x1="0" y1="0" x2="1" y2="0" id="linearGradient3616" gradientUnits="userSpaceOnUse" gradientTransform="matrix(0,-22.223846,-22.223846,0,559.66599,394.57239)" spreadMethod="pad">
   <stop id="stop3618" style="stop-color:#ffffff;stop-opacity:1" offset="0">
   </stop>
   <stop id="stop3620" style="stop-color:#bde0a1;stop-opacity:1" offset="1">
   </stop>
  </linearGradient>
  <linearGradient x1="0" y1="0" x2="1" y2="0" id="linearGradient3596" gradientUnits="userSpaceOnUse" gradientTransform="matrix(-2.4407959,13.842407,13.842407,2.4407959,528.69885,385.7583)" spreadMethod="pad">
   <stop id="stop3598" style="stop-color:#e6f2f9;stop-opacity:1" offset="0">
   </stop>
   <stop id="stop3600" style="stop-color:#0079c1;stop-opacity:1" offset="1">
   </stop>
  </linearGradient>
  <linearGradient x1="0" y1="0" x2="1" y2="0" id="linearGradient3576" gradientUnits="userSpaceOnUse" gradientTransform="matrix(0,-44.01712,-44.01712,0,556.42926,408.71265)" spreadMethod="pad">
   <stop id="stop3578" style="stop-color:#ffffff;stop-opacity:1" offset="0">
   </stop>
   <stop id="stop3580" style="stop-color:#8eca5e;stop-opacity:1" offset="1">
   </stop>
  </linearGradient>
  <linearGradient x1="0" y1="0" x2="1" y2="0" id="linearGradient3554" gradientUnits="userSpaceOnUse" gradientTransform="matrix(21.953323,-22.575088,-22.575088,-21.953323,546.64645,408.06335)" spreadMethod="pad">
   <stop id="stop3556" style="stop-color:#f0f7e7;stop-opacity:1" offset="0">
   </stop>
   <stop id="stop3558" style="stop-color:#8dc85a;stop-opacity:1" offset="0.235962">
   </stop>
   <stop id="stop3560" style="stop-color:#007360;stop-opacity:1" offset="1">
   </stop>
  </linearGradient>
  <linearGradient x1="0" y1="0" x2="1" y2="0" id="linearGradient3532" gradientUnits="userSpaceOnUse" gradientTransform="matrix(-10.663361,8.9476318,8.9476318,10.663361,531.0387,375.86066)" spreadMethod="pad">
   <stop id="stop3534" style="stop-color:#fef3f6;stop-opacity:1" offset="0">
   </stop>
   <stop id="stop3536" style="stop-color:#ed1849;stop-opacity:1" offset="0.75823998">
   </stop>
   <stop id="stop3538" style="stop-color:#ed1849;stop-opacity:1" offset="1">
   </stop>
  </linearGradient>
  <clipPath id="clipPath3466">
   <path d="m 0,0 595.276,0 0,419.528 L 0,419.528 0,0 z" id="path3468">
   </path>
  </clipPath>
  <linearGradient x1="0" y1="0" x2="1" y2="0" id="linearGradient4140" href="#linearGradient3532" gradientUnits="userSpaceOnUse" gradientTransform="matrix(-10.663361,8.9476318,8.9476318,10.663361,531.0387,375.86066)" spreadMethod="pad">
  </linearGradient>
  <linearGradient x1="0" y1="0" x2="1" y2="0" id="linearGradient4142" xlink:href="#linearGradient3554" gradientUnits="userSpaceOnUse" gradientTransform="matrix(21.953323,-22.575088,-22.575088,-21.953323,546.64645,408.06335)" spreadMethod="pad">
  </linearGradient>
  <linearGradient x1="0" y1="0" x2="1" y2="0" id="linearGradient4144" xlink:href="#linearGradient3576" gradientUnits="userSpaceOnUse" gradientTransform="matrix(0,-44.01712,-44.01712,0,556.42926,408.71265)" spreadMethod="pad">
  </linearGradient>
  <linearGradient x1="0" y1="0" x2="1" y2="0" id="linearGradient4146" xlink:href="#linearGradient3596" gradientUnits="userSpaceOnUse" gradientTransform="matrix(-2.4407959,13.842407,13.842407,2.4407959,528.69885,385.7583)" spreadMethod="pad">
  </linearGradient>
  <linearGradient x1="0" y1="0" x2="1" y2="0" id="linearGradient4148" xlink:href="#linearGradient3616" gradientUnits="userSpaceOnUse" gradientTransform="matrix(0,-22.223846,-22.223846,0,559.66599,394.57239)" spreadMethod="pad">
  </linearGradient>
 </defs>
 <metadata id="metadata3828">
  <rdf:RDF>
   <cc:Work rdf:about="">
    <dc:format>
     image/svg+xml
    </dc:format>
    <dc:type rdf:resource="http://purl.org/dc/dcmitype/StillImage">
    </dc:type>
    <dc:title>
    </dc:title>
   </cc:Work>
  </rdf:RDF>
 </metadata>
 <g transform="translate(90.917919,-445.38039)" id="layer1">
  <g transform="matrix(4.9456653,0,0,4.9456653,-1530.6293,-1760.9466)" id="g4050">
   <path d="m 293.99927,475.39006 c -0.315,0 -0.59,0.26375 -0.59,0.56 0,0.31375 0.275,0.575 0.59,0.575 0.325,0 0.585,-0.26125 0.585,-0.575 0,-0.29625 -0.26,-0.56 -0.585,-0.56 m 1.52375,0 c -0.33125,0 -0.58625,0.26375 -0.58625,0.56 0,0.31375 0.255,0.575 0.58625,0.575 0.31125,0 0.58,-0.26125 0.58,-0.575 0,-0.29625 -0.26875,-0.56 -0.58,-0.56 m 11.0675,-5.04 c 0,0.7525 -0.37125,1.12875 -1.115,1.12875 l -0.5425,0 0,-0.0213 -7.52125,0 0,0.0213 -0.32875,0 c -0.72,0 -1.01,-0.23375 -1.295,-0.92625 l -0.49375,0.99625 c 0.22875,0.505 0.685,0.7825 1.38625,0.8375 -0.0487,0.51875 -0.29625,0.8625 -0.7425,1.0275 -0.23875,0.0975 -0.62375,0.1375 -1.16625,0.1375 -1.24625,0.0125 -1.91125,-0.7375 -1.91125,-2.0025 0,-0.7625 0.22625,-1.625 0.665,-2.5875 l -1.235,0.72625 c -0.29625,0.70875 -0.44625,1.3925 -0.44625,2.05875 0,0.81125 0.2275,1.4625 0.67625,1.9425 0.51125,0.53875 1.26625,0.81375 2.25125,0.81375 0.84625,0 1.51625,-0.1625 2.00375,-0.50875 0.555,-0.37125 0.815,-0.91375 0.7675,-1.6075 l 7.99,0 c 0.63875,0 1.16125,-0.185 1.54,-0.55375 0.38375,-0.36375 0.58,-0.83875 0.58,-1.40375 l 0,-3.0225 -1.0625,0.30625 0,2.6375 z m -0.20375,3.01625 c -0.305,0 -0.575,0.25625 -0.575,0.56625 0,0.3025 0.27,0.57 0.575,0.57 0.315,0 0.58875,-0.2675 0.58875,-0.57 0,-0.31 -0.27375,-0.56625 -0.58875,-0.56625 m 6.0825,-5.43 c -0.415,-0.3425 -0.9425,-0.52 -1.61,-0.52 -0.50875,0 -1.01125,0.21875 -1.51625,0.65125 l 0,1.19125 c 0.3675,-0.63875 0.87875,-0.95625 1.51625,-0.95625 0.78125,0 1.16875,0.36 1.16875,1.08 l 0,2.09625 -2.765,0 -0.645,0.9075 4.47,0 0,-3.085 c 0,-0.57 -0.19875,-1.0225 -0.61875,-1.365 m 5.69875,-0.58625 c -0.81,0 -1.4125,0.2625 -1.8,0.795 -0.32375,0.43 -0.4825,1.005 -0.4825,1.715 0,0.71375 0.15875,1.28375 0.4825,1.7175 0.3875,0.54 0.99,0.80875 1.8,0.80875 0.81625,0 1.42375,-0.26875 1.81625,-0.80875 0.31125,-0.43375 0.4725,-1.00375 0.4725,-1.7175 0,-0.71 -0.16125,-1.285 -0.4725,-1.715 -0.3925,-0.5325 -1,-0.795 -1.81625,-0.795 m 0,4.15125 c -0.81,0 -1.21625,-0.555 -1.21625,-1.64125 0,-1.0875 0.40625,-1.62875 1.21625,-1.62875 0.825,0 1.2425,0.54125 1.2425,1.62875 0,1.08625 -0.4175,1.64125 -1.2425,1.64125 m 12.7525,1.865 c -0.325,0 -0.5775,0.25625 -0.5775,0.56625 0,0.3025 0.2525,0.57 0.5775,0.57 0.3175,0 0.59,-0.2675 0.59,-0.57 0,-0.31 -0.2725,-0.56625 -0.59,-0.56625 m 1.51,0 c -0.31375,0 -0.56875,0.25625 -0.56875,0.56625 0,0.3025 0.255,0.57 0.56875,0.57 0.315,0 0.58875,-0.2675 0.58875,-0.57 0,-0.31 -0.27375,-0.56625 -0.58875,-0.56625 m 4.9475,-5.72 c -0.7775,0 -1.35625,0.24375 -1.72875,0.73625 -0.3025,0.4275 -0.46,0.96625 -0.46,1.64 l 0,0.3525 c 0,0.74 -0.37,1.10375 -1.10625,1.10375 l -0.7725,0 c -0.74375,0 -1.115,-0.36375 -1.115,-1.0925 l 0,-2.98 -1.05875,0.30625 0,2.6375 c 0,0.7525 -0.37125,1.12875 -1.1275,1.12875 l -0.47625,0 0,-0.0213 -6.48625,0 c -0.37125,0 -0.5475,-0.17875 -0.5475,-0.53375 l 0,-5.66125 -1.07625,0.33375 0,5.36 c 0,0.8575 0.53125,1.43 1.48875,1.43 l 7.16125,0 c 0.6925,0 1.22,-0.20125 1.60625,-0.585 0.38,0.38375 0.89875,0.585 1.55875,0.585 l 0.915,0 c 0.74375,0 1.295,-0.20125 1.65625,-0.585 0.395,0.38375 0.915,0.585 1.56875,0.585 0.76375,0 1.3375,-0.255 1.7125,-0.75375 0.30375,-0.41125 0.46,-0.94875 0.46,-1.61 0,-0.67375 -0.15625,-1.2125 -0.46,-1.64 -0.375,-0.4925 -0.94875,-0.73625 -1.7125,-0.73625 m 0,3.845 c -0.7475,0 -1.12,-0.4875 -1.12,-1.46875 0,-0.98375 0.3725,-1.48125 1.12,-1.48125 0.73125,0 1.0975,0.4975 1.0975,1.48125 0,0.98125 -0.36625,1.46875 -1.0975,1.46875 m 5.3375,-3.8975 c -0.77875,0 -1.3625,0.2625 -1.73625,0.77875 -0.305,0.4375 -0.46125,0.995 -0.46125,1.69125 0,0.69625 0.15625,1.24875 0.46125,1.6825 0.37375,0.52875 0.9575,0.79 1.73625,0.79 0.39375,0 0.75,-0.0888 1.07,-0.26125 -0.09,0.825 -0.5425,1.26875 -1.3475,1.31375 -0.5575,0.0337 -1.1525,-0.0913 -1.79375,-0.3875 l 0.46875,1.015 c 0.32125,0.18625 0.76375,0.28625 1.325,0.28625 0.79625,0 1.4075,-0.25125 1.8225,-0.74875 0.395,-0.4425 0.58375,-1.03625 0.59875,-1.80125 0,-0.11125 0.004,-0.34125 0.0325,-0.69375 0.01,-0.32125 0.01,-0.5975 0.01,-0.805 0,-0.85375 -0.12375,-1.5025 -0.3725,-1.9575 -0.34625,-0.60625 -0.95875,-0.9025 -1.81375,-0.9025 m 0,4.02875 c -0.75,0 -1.14,-0.52 -1.14,-1.55875 0,-1.05 0.39,-1.5675 1.14,-1.5675 0.75375,0 1.13,0.5175 1.13,1.5675 0,1.03875 -0.37625,1.55875 -1.13,1.55875 m 7.46875,-0.6425 c 0,-0.63 0.3825,-1.07875 0.93375,-1.07875 0.335,0 0.62125,0.15375 0.8575,0.44875 l 0.7225,-0.6925 c -0.44625,-0.46125 -0.9425,-0.69625 -1.4675,-0.69625 -0.64,0 -1.14875,0.2175 -1.515,0.66 -0.3525,0.40125 -0.53625,0.9075 -0.53625,1.5225 l 0,0.3 -0.775,0 -0.81,0.9425 5.27625,0 0,-0.9425 -2.68625,0 0,-0.46375 z m 13.63,-0.63 c 0,0.7525 -0.36875,1.12875 -1.11625,1.12875 l -0.5425,0 0,-0.0213 -6.48875,0 c -0.37,0 -0.545,-0.17875 -0.545,-0.53375 l 0,-5.66125 -1.07375,0.33375 0,5.36 c 0,0.8575 0.53125,1.43 1.4825,1.43 l 7.225,0 c 0.64625,0 1.1625,-0.185 1.54375,-0.55375 0.38,-0.36375 0.575,-0.83875 0.575,-1.40375 l 0,-3.0225 -1.06,0.30625 0,2.6375 z m -0.205,3.01625 c -0.3,0 -0.57,0.25625 -0.57,0.56625 0,0.3025 0.27,0.57 0.57,0.57 0.31875,0 0.58375,-0.2675 0.58375,-0.57 0,-0.31 -0.265,-0.56625 -0.58375,-0.56625 m 27.4575,-4.9125 c -0.535,-0.46125 -1.1875,-0.69375 -1.9625,-0.69375 -0.165,0 -0.3275,0.009 -0.49875,0.0325 l 2.43625,-2.51125 -1.40125,0 -3.5,3.58125 0.73375,0.66875 c 0.50375,-0.57 1.16,-0.855 1.97,-0.855 0.61875,0 1.12125,0.17125 1.51,0.5275 0.2825,0.26 0.46,0.6175 0.54,1.075 0.0312,0.2275 0.0575,0.63375 0.045,1.2 l -5.0225,0 0,-0.0213 -4.79,0 0,-0.4775 c 0,-0.8925 -0.04,-1.51625 -0.12375,-1.89875 -0.1,-0.50625 -0.325,-0.905 -0.665,-1.2025 -0.51625,-0.4625 -1.195,-0.695 -2.02875,-0.695 -0.84125,0 -1.52125,0.32 -2.05,0.95125 -0.51625,0.62375 -0.775,1.39125 -0.76375,2.30375 0.01,0.43625 0.0863,0.765 0.2125,1.01875 l -6.45375,0 0,-4.05125 -1.07125,0.30625 0,4.37125 c 0,0.93125 -0.5475,1.505 -1.46125,1.505 -0.64125,0 -1.2125,-0.14875 -1.71125,-0.42 l 0.49875,1.03375 c 0.33,0.2 0.72875,0.3 1.2125,0.3 1.44875,0 2.375,-0.83625 2.52125,-2.11625 l 22.79,0 c 0,-1.25125 -0.0138,-1.9575 -0.0325,-2.1075 -0.0925,-0.76875 -0.4075,-1.375 -0.93375,-1.825 m -13.77875,3.00375 c -0.55375,0 -0.83125,-0.46375 -0.83125,-1.07125 0,-0.3225 0.0775,-0.60875 0.21625,-0.86 0.1625,-0.255 0.36625,-0.38625 0.615,-0.38625 0.24375,0 0.45,0.13125 0.6025,0.38625 0.16,0.25125 0.2325,0.5375 0.2325,0.86 0,0.6075 -0.28375,1.07125 -0.835,1.07125 m 2.79375,0 -1.33875,0 c 0.23125,-0.1675 0.3475,-0.52 0.3475,-1.06125 0,-0.55375 -0.1375,-1.01375 -0.41,-1.40125 -0.32375,-0.4725 -0.77875,-0.705 -1.34875,-0.705 0.24375,-0.125 0.57,-0.17875 0.9775,-0.17875 0.83375,-0.0138 1.3625,0.3 1.5925,0.95125 0.1175,0.32 0.18,0.96 0.18,1.9175 l 0,0.4775 z m 16.535,-5.03625 c 0.32625,0 0.595,-0.26625 0.595,-0.57375 0,-0.31 -0.26875,-0.56625 -0.595,-0.56625 -0.315,0 -0.58375,0.25625 -0.58375,0.56625 0,0.3075 0.26875,0.57375 0.58375,0.57375 m 1.52,0 c 0.31625,0 0.58375,-0.26625 0.58375,-0.57375 0,-0.31 -0.2675,-0.56625 -0.58375,-0.56625 -0.315,0 -0.5775,0.25625 -0.5775,0.56625 0,0.3075 0.2625,0.57375 0.5775,0.57375 m 7.815,-0.4075 -1.67625,0 0,-0.3225 c 0,-0.49125 0.2125,-0.74125 0.62875,-0.74125 0.24375,0 0.42375,0.10375 0.58625,0.3125 l 0.50625,-0.48375 c -0.315,-0.31 -0.6375,-0.4675 -0.99625,-0.4675 -0.89,0 -1.42625,0.65125 -1.42625,1.4825 l 0,0.22 -0.38625,0 -0.53375,0.64 3.2975,0 0,-0.64 z m 4.4875,7.3525 c -0.3275,0 -0.5825,0.25625 -0.5825,0.56625 0,0.3025 0.255,0.57 0.5825,0.57 0.31625,0 0.58125,-0.2675 0.58125,-0.57 0,-0.31 -0.265,-0.56625 -0.58125,-0.56625 m 1.505,0 c -0.315,0 -0.57,0.25625 -0.57,0.56625 0,0.3025 0.255,0.57 0.57,0.57 0.31625,0 0.59125,-0.2675 0.59125,-0.57 0,-0.31 -0.275,-0.56625 -0.59125,-0.56625 m 8.52875,-5.20875 c -0.4375,-0.7625 -1.24,-1.14125 -2.39375,-1.14125 l -1.35625,0 -1.22875,0.925 2.44375,0 c 0.80375,0 1.33125,0.2475 1.59,0.74375 0.1875,0.35375 0.285,0.98125 0.285,1.88 l 0,0.8925 -1.00375,0 c 0.19875,-0.24375 0.2975,-0.64625 0.2975,-1.17875 0,-0.4575 -0.0988,-0.84375 -0.3075,-1.13875 -0.26,-0.38875 -0.655,-0.575 -1.2,-0.575 -0.5275,0 -0.93375,0.18625 -1.20125,0.575 -0.21375,0.295 -0.31625,0.68125 -0.31625,1.13875 0,0.68875 0.115,1.07875 0.34375,1.17875 l -3.26125,0 0,0.0213 -0.34125,0 c -0.75,0 -1.1175,-0.36375 -1.1175,-1.0925 l 0,-2.98 -1.05375,0.30625 0,2.6375 c 0,0.7525 -0.37125,1.12875 -1.1275,1.12875 l -0.47875,0 0,-0.0213 -2.08125,0 0,0.0213 -0.3375,0 c -0.74125,0 -1.1125,-0.36375 -1.1125,-1.0925 l 0,-2.98 -1.0575,0.30625 0,2.6375 c 0,0.7525 -0.37,1.12875 -1.1325,1.12875 l -0.47,0 0,-0.0213 -2.08125,0 0,0.0213 -0.40625,0 c -0.73125,0 -1.09875,-0.37625 -1.09875,-1.12875 l 0,-2.94375 -2.28875,0 c -1.42875,0 -2.15125,0.8175 -2.15125,2.45375 0,1.68875 0.7225,2.52625 2.15125,2.52625 0.8425,0 1.3975,-0.255 1.65,-0.775 0.24375,0.52 0.805,0.775 1.68125,0.775 l 3.085,0 c 0.69125,0 1.21375,-0.20125 1.605,-0.585 0.37875,0.38375 0.895,0.585 1.5625,0.585 l 3.02875,0 c 0.68875,0 1.21375,-0.20125 1.60625,-0.585 0.375,0.38375 0.8975,0.585 1.56375,0.585 l 8.14875,0 0,-1.82125 c 0,-1.0725 -0.14625,-1.88 -0.4375,-2.4075 m -22.27625,1.7025 c 0,0.53625 -0.08,0.9375 -0.22625,1.17625 -0.1725,0.3 -0.48625,0.4425 -0.92375,0.4425 -0.43875,0 -0.76,-0.1425 -0.92875,-0.4425 -0.14375,-0.23875 -0.2225,-0.64 -0.2225,-1.17625 0,-0.54625 0.0787,-0.94375 0.2225,-1.175 0.16875,-0.28375 0.49,-0.4275 0.92875,-0.4275 l 1.15,0 0,1.6025 z m 19.4025,1.61875 c -0.4325,0 -0.665,-0.39875 -0.665,-1.2 0,-0.645 0.2325,-0.965 0.665,-0.965 0.44375,0 0.67,0.32 0.67,0.965 0,0.80125 -0.22625,1.2 -0.67,1.2" id="path3390" style="fill:#000000;fill-opacity:1;fill-rule:nonzero;stroke:none">
   </path>
   <g transform="matrix(1.25,0,0,-1.25,409.37327,480.86856)" id="g3392">
    <path d="m 0,0 -0.005,-0.003 c -0.279,-0.21 -0.422,-0.48 -0.422,-0.79 l 0,-2.13 0.757,0 0,2.121 c 0,0.31 0.389,0.528 0.948,0.528 l 0.163,0 0,0.603 -0.163,0 C 0.742,0.329 0.31,0.215 0,0" id="path3394" style="fill:#000000;fill-opacity:1;fill-rule:nonzero;stroke:none">
    </path>
   </g>
   <g transform="matrix(1.25,0,0,-1.25,412.3684,479.85644)" id="g3396">
    <path d="M 0,0 C 0.251,0 0.399,0.155 0.399,0.41 0.399,0.661 0.243,0.813 0,0.813 -0.247,0.813 -0.404,0.661 -0.404,0.41 -0.404,0.156 -0.247,0 0,0 m -0.377,-3.733 0.746,0 0,3.253 -0.746,0 0,-3.253 z" id="path3398" style="fill:#000000;fill-opacity:1;fill-rule:nonzero;stroke:none">
    </path>
   </g>
   <g transform="matrix(1.25,0,0,-1.25,419.96515,480.45706)" id="g3400">
    <path d="m 0,0 0,-1.794 c 0,-0.313 -0.388,-0.533 -0.948,-0.533 -0.499,0 -1.032,0.139 -1.032,0.525 l 0.004,0.095 0,1.707 -0.762,0 0,-1.697 c 0,-0.003 -0.004,-0.117 -0.004,-0.117 0,-0.536 0.469,-1.111 1.794,-1.111 0.375,0 0.682,0.073 0.948,0.182 l 0,-0.826 c 0,-0.313 -0.388,-0.529 -0.948,-0.529 l -0.847,0 0,-0.6 0.847,0 c 0.535,0 0.967,0.109 1.279,0.327 0.284,0.215 0.425,0.484 0.425,0.798 L 0.756,0 0,0 z" id="path3402" style="fill:#000000;fill-opacity:1;fill-rule:nonzero;stroke:none">
    </path>
   </g>
   <g transform="matrix(1.25,0,0,-1.25,414.61152,483.26856)" id="g3404">
    <path d="m 0,0 0,1.652 0.975,0 0,0.597 -0.975,0 0,0.919 -0.752,0 0,-3.071 c 0,-0.445 0.142,-0.749 0.425,-0.9 0.243,-0.136 0.636,-0.2 1.196,-0.2 l 0.28,0 0,0.597 -0.165,0 C 0.055,-0.406 0,-0.25 0,0" id="path3406" style="fill:#000000;fill-opacity:1;fill-rule:nonzero;stroke:none">
    </path>
   </g>
   <g transform="matrix(1.25,0,0,-1.25,407.59503,480.87206)" id="g3408">
    <path d="M 0,0 -0.005,0.006 C -0.32,0.217 -0.753,0.332 -1.284,0.332 -1.891,0.332 -2.32,0.217 -2.635,0.006 -2.921,-0.212 -3.06,-0.48 -3.06,-0.791 l 0,-1.029 c 0,-0.445 0.139,-0.749 0.425,-0.9 0.246,-0.136 0.636,-0.201 1.194,-0.201 l 0.238,0 c 0.555,0 0.955,0.065 1.203,0.204 0.277,0.148 0.417,0.452 0.417,0.897 l 0,1.029 C 0.417,-0.48 0.277,-0.211 0,0 m -0.336,-1.917 c 0,-0.25 -0.047,-0.406 -0.984,-0.406 -0.939,0 -0.985,0.156 -0.985,0.406 l 0,1.118 c 0,0.31 0.391,0.533 0.946,0.533 0.629,0 1.023,-0.223 1.023,-0.533 l 0,-1.118 z" id="path3410" style="fill:#000000;fill-opacity:1;fill-rule:nonzero;stroke:none">
    </path>
   </g>
   <g transform="matrix(1.25,0,0,-1.25,389.44665,479.60494)" id="g3412">
    <path d="m 0,0 -0.002,0.003 c -0.314,0.218 -0.745,0.33 -1.283,0.33 -1.314,0 -1.789,-0.579 -1.789,-1.12 l 0,-3.147 0.764,0 0,1.104 1.976,0 0,-1.104 0.756,0 0,3.138 C 0.422,-0.477 0.279,-0.211 0,0 m -0.334,-2.229 -1.976,0 0,1.442 c 0,0.483 0.783,0.518 1.025,0.518 0.563,0 0.951,-0.218 0.951,-0.531 l 0,-1.429 z" id="path3414" style="fill:#000000;fill-opacity:1;fill-rule:nonzero;stroke:none">
    </path>
   </g>
   <g transform="matrix(1.25,0,0,-1.25,400.80003,480.87206)" id="g3416">
    <path d="m 0,0 c -0.371,0 -0.676,-0.07 -0.946,-0.179 l 0,1.483 -0.756,0 0,-4.225 0.756,0 0,1.788 c 0,0.315 0.388,0.531 0.946,0.531 0.5,0 1.033,-0.134 1.033,-0.518 l -0.002,-0.096 0,-1.705 0.763,0 0,1.693 0,0.119 C 1.794,-0.573 1.325,0 0,0" id="path3418" style="fill:#000000;fill-opacity:1;fill-rule:nonzero;stroke:none">
    </path>
   </g>
   <g transform="matrix(1.25,0,0,-1.25,394.10952,483.12831)" id="g3420">
    <path d="m 0,0 c 0,-0.479 -0.785,-0.518 -1.026,-0.518 -0.557,0 -0.951,0.217 -0.951,0.529 l 0,2.126 -0.751,0 0,-2.133 c 0,-0.313 0.139,-0.575 0.418,-0.791 l 0.004,-0.004 c 0.312,-0.218 0.744,-0.325 1.28,-0.325 1.325,0 1.796,0.576 1.796,1.116 l 0,2.137 L 0,2.137 0,0 z" id="path3422" style="fill:#000000;fill-opacity:1;fill-rule:nonzero;stroke:none">
    </path>
   </g>
   <g transform="matrix(1.25,0,0,-1.25,396.73365,483.26856)" id="g3424">
    <path d="m 0,0 0,1.652 0.974,0 0,0.597 -0.974,0 0,0.919 -0.756,0 0,-3.071 c 0,-0.445 0.146,-0.749 0.429,-0.9 0.243,-0.136 0.64,-0.2 1.194,-0.2 l 0.278,0 0,0.597 -0.159,0 C 0.051,-0.406 0,-0.25 0,0" id="path3426" style="fill:#000000;fill-opacity:1;fill-rule:nonzero;stroke:none">
    </path>
   </g>
   <g transform="matrix(1.25,0,0,-1.25,300.2639,483.12831)" id="g3428">
    <path d="m 0,0 c 0,-0.479 -0.788,-0.518 -1.034,-0.518 -0.556,0 -0.947,0.217 -0.947,0.529 l 0,2.126 -0.754,0 0,-2.133 c 0,-0.309 0.143,-0.575 0.422,-0.791 0.315,-0.222 0.742,-0.329 1.279,-0.329 1.324,0 1.797,0.576 1.797,1.116 l 0,2.137 L 0,2.137 0,0 z" id="path3430" style="fill:#000000;fill-opacity:1;fill-rule:nonzero;stroke:none">
    </path>
   </g>
   <g transform="matrix(1.25,0,0,-1.25,305.4954,480.86031)" id="g3432">
    <path d="m 0,0 0,0 c -0.273,0.218 -0.629,0.323 -1.08,0.323 l -1.047,0 0,1.122 -0.747,0 0,-3.064 c 0.046,-0.876 0.644,-1.311 1.794,-1.311 1.171,0 1.669,0.476 1.669,1.596 C 0.589,-0.722 0.421,-0.336 0,0 m -1.144,-2.299 c -0.847,0 -0.976,0.603 -0.976,0.965 l 0,1.064 0.976,0 c 0.852,0 0.981,-0.666 0.981,-1.064 0,-0.738 -0.227,-0.965 -0.981,-0.965" id="path3434" style="fill:#000000;fill-opacity:1;fill-rule:nonzero;stroke:none">
    </path>
   </g>
   <g transform="matrix(1.25,0,0,-1.25,295.62715,479.46681)" id="g3436">
    <path d="M 0,0 -0.005,0.001 C -0.315,0.223 -0.742,0.33 -1.278,0.33 l -1.766,0 0,-4.375 1.842,0 c 0.557,0 0.954,0.065 1.202,0.204 0.279,0.148 0.42,0.452 0.42,0.897 l 0,2.152 C 0.42,-0.48 0.279,-0.213 0,0 m -0.334,-3.041 c 0,-0.25 -0.044,-0.406 -0.982,-0.406 l -0.981,0 0,3.179 1.019,0 c 0.554,0 0.944,-0.219 0.944,-0.532 l 0,-2.241 z" id="path3438" style="fill:#000000;fill-opacity:1;fill-rule:nonzero;stroke:none">
    </path>
   </g>
   <g transform="matrix(1.25,0,0,-1.25,312.3704,479.72519)" id="g3440">
    <path d="M 0,0 C 0.249,0 0.4,0.156 0.4,0.414 0.4,0.663 0.246,0.815 0,0.815 -0.248,0.815 -0.406,0.663 -0.406,0.414 -0.406,0.159 -0.248,0 0,0 m -0.378,-3.733 0.746,0 0,3.257 -0.746,0 0,-3.257 z" id="path3442" style="fill:#000000;fill-opacity:1;fill-rule:nonzero;stroke:none">
    </path>
   </g>
   <g transform="matrix(1.25,0,0,-1.25,309.04703,484.52281)" id="g3444">
    <path d="m 0,0 c 0.538,0 0.963,0.106 1.276,0.325 0.285,0.22 0.426,0.486 0.426,0.795 l 0,1.026 C 1.702,2.594 1.556,2.901 1.276,3.05 1.032,3.187 0.635,3.255 0.078,3.255 l -1.287,0 0,-0.605 1.175,0 c 0.925,0 0.983,-0.151 0.983,-0.408 l 0,-0.023 -1.285,0 c -0.571,0 -0.94,-0.086 -1.165,-0.275 C -1.698,1.774 -1.795,1.493 -1.795,1.105 -1.795,0.571 -1.323,0 0,0 m -0.445,1.642 1.394,0 0,-0.515 C 0.949,0.814 0.557,0.598 0,0.598 c -0.499,0 -1.035,0.137 -1.035,0.522 0,0.214 0.075,0.522 0.59,0.522" id="path3446" style="fill:#000000;fill-opacity:1;fill-rule:nonzero;stroke:none">
    </path>
   </g>
   <g transform="matrix(1.25,0,0,-1.25,316.0559,479.46531)" id="g3448">
    <path d="m 0,0 c -0.283,-0.215 -0.426,-0.482 -0.426,-0.793 l 0,-2.152 c 0,-0.446 0.143,-0.749 0.426,-0.9 0.249,-0.137 0.636,-0.201 1.195,-0.201 l 1.291,0 0,0.598 -1.174,0 c -0.932,0 -0.981,0.156 -0.981,0.405 l 0,0.883 1.275,0 0,0.602 -1.275,0 0,0.756 c 0,0.314 0.387,0.532 0.945,0.532 l 1.21,0 0,0.599 -1.21,0 C 0.745,0.329 0.313,0.221 0,0" id="path3450" style="fill:#000000;fill-opacity:1;fill-rule:nonzero;stroke:none">
    </path>
   </g>
   <g transform="matrix(1.25,0,0,-1.25,327.08515,480.86856)" id="g3452">
    <path d="m 0,0 -0.004,-0.003 c -0.274,-0.21 -0.422,-0.48 -0.422,-0.79 l 0,-1.03 c 0,-0.445 0.148,-0.749 0.426,-0.9 0.247,-0.136 0.642,-0.2 1.195,-0.2 l 1.293,0 0,0.597 -1.17,0 c -0.939,0 -0.985,0.157 -0.985,0.406 l 0,1.118 c 0,0.31 0.389,0.532 0.944,0.532 l 1.211,0 0,0.599 -1.211,0 C 0.745,0.329 0.316,0.215 0,0" id="path3454" style="fill:#000000;fill-opacity:1;fill-rule:nonzero;stroke:none">
    </path>
   </g>
   <g transform="matrix(1.25,0,0,-1.25,334.55302,480.87206)" id="g3456">
    <path d="m 0,0 c -0.285,-0.211 -0.427,-0.48 -0.427,-0.791 l 0,-2.13 0.754,0 0,2.122 c 0,0.31 0.389,0.528 0.951,0.528 l 0.163,0 0,0.603 -0.163,0 C 0.742,0.332 0.313,0.217 0,0" id="path3458" style="fill:#000000;fill-opacity:1;fill-rule:nonzero;stroke:none">
    </path>
   </g>
   <path d="m 319.88265,484.52344 0.935,0 0,-5.46875 -0.935,0 0,5.46875 z" id="path3460" style="fill:#000000;fill-opacity:1;fill-rule:nonzero;stroke:none">
   </path>
   <g transform="matrix(1.25,0,0,-1.25,-229.7561,949.97469)" id="g3462">
    <g clip-path="url(#clipPath3466)" id="g3464">
     <path d="m 453.464,372.361 0.745,0 0,3.253 -0.745,0 0,-3.253 z m 0.384,3.734 c 0.245,0 0.39,0.154 0.39,0.41 0,0.251 -0.152,0.402 -0.39,0.402 -0.255,0 -0.406,-0.151 -0.406,-0.402 0,-0.254 0.151,-0.41 0.406,-0.41" id="path3470" style="fill:#000000;fill-opacity:1;fill-rule:nonzero;stroke:none">
     </path>
     <g transform="translate(460.4535,373.3649)" id="g3472">
      <path d="m 0,0 0,1.652 0.97,0 0,0.597 -0.97,0 0,0.919 -0.755,0 0,-3.071 c 0,-0.445 0.144,-0.749 0.425,-0.9 0.246,-0.136 0.642,-0.2 1.192,-0.2 l 0.287,0 0,0.597 -0.165,0 C 0.045,-0.406 0,-0.25 0,0" id="path3474" style="fill:#000000;fill-opacity:1;fill-rule:nonzero;stroke:none">
      </path>
     </g>
     <g transform="translate(449.2941,373.3649)" id="g3476">
      <path d="m 0,0 0,1.652 0.973,0 0,0.597 -0.973,0 0,0.919 -0.757,0 0,-3.071 c 0,-0.445 0.143,-0.749 0.429,-0.9 0.243,-0.136 0.638,-0.2 1.19,-0.2 l 0.289,0 0,0.597 -0.167,0 C 0.047,-0.406 0,-0.25 0,0" id="path3478" style="fill:#000000;fill-opacity:1;fill-rule:nonzero;stroke:none">
      </path>
     </g>
     <g transform="translate(464.7457,373.8197)" id="g3480">
      <path d="m 0,0 c 0,-0.313 -0.394,-0.533 -0.954,-0.533 -0.496,0 -1.024,0.14 -1.024,0.525 l 0,0.097 0,1.705 -0.766,0 0,-1.697 c 0,-0.003 -0.004,-0.117 -0.004,-0.117 0,-0.536 0.475,-1.11 1.794,-1.11 0.377,0 0.683,0.072 0.954,0.182 l 0,-0.826 c 0,-0.314 -0.394,-0.529 -0.954,-0.529 l -0.844,0 0,-0.601 0.844,0 c 0.537,0 0.967,0.11 1.275,0.327 0.292,0.213 0.435,0.484 0.435,0.799 l 0,3.572 L 0,1.794 0,0 z" id="path3482" style="fill:#000000;fill-opacity:1;fill-rule:nonzero;stroke:none">
      </path>
     </g>
     <g transform="translate(455.2184,375.2849)" id="g3484">
      <path d="m 0,0 -0.006,-0.003 c -0.278,-0.211 -0.421,-0.48 -0.421,-0.79 l 0,-1.03 c 0,-0.445 0.143,-0.749 0.423,-0.9 0.248,-0.136 0.638,-0.2 1.196,-0.2 l 1.29,0 0,0.597 -1.17,0 c -0.941,0 -0.991,0.157 -0.991,0.406 l 0,1.118 c 0,0.31 0.394,0.532 0.956,0.532 l 1.205,0 0,0.599 -1.205,0 C 0.741,0.329 0.306,0.215 0,0" id="path3486" style="fill:#000000;fill-opacity:1;fill-rule:nonzero;stroke:none">
      </path>
     </g>
     <g transform="translate(458.652,376.0946)" id="g3488">
      <path d="M 0,0 C 0.25,0 0.394,0.155 0.394,0.41 0.394,0.661 0.244,0.813 0,0.813 -0.251,0.813 -0.402,0.661 -0.402,0.41 -0.402,0.156 -0.251,0 0,0 m -0.372,-3.733 0.745,0 0,3.253 -0.745,0 0,-3.253 z" id="path3490" style="fill:#000000;fill-opacity:1;fill-rule:nonzero;stroke:none">
      </path>
     </g>
     <g transform="translate(442.7387,375.6141)" id="g3492">
      <path d="m 0,0 c -0.538,0 -0.963,-0.115 -1.274,-0.329 -0.287,-0.214 -0.429,-0.482 -0.429,-0.794 l 0,-1.029 c 0,-0.445 0.147,-0.749 0.429,-0.9 0.242,-0.136 0.637,-0.201 1.192,-0.201 l 1.294,0 0,0.598 -1.172,0 c -0.938,0 -0.982,0.156 -0.982,0.406 l 0,0.031 1.283,0 c 0.565,0 0.935,0.081 1.16,0.268 0.193,0.17 0.298,0.454 0.298,0.837 C 1.799,-0.575 1.326,0 0,0 m 0.448,-1.647 -1.39,0 0,0.516 c 0,0.31 0.39,0.532 0.942,0.532 0.501,0 1.033,-0.142 1.033,-0.524 0,-0.217 -0.072,-0.524 -0.585,-0.524" id="path3494" style="fill:#000000;fill-opacity:1;fill-rule:nonzero;stroke:none">
      </path>
     </g>
     <g transform="translate(488.7199,375.2821)" id="g3496">
      <path d="m 0,0 -0.006,0 c -0.279,-0.211 -0.42,-0.48 -0.42,-0.791 l 0,-2.13 0.751,0 0,2.122 c 0,0.31 0.396,0.528 0.952,0.528 l 0.164,0 0,0.603 -0.164,0 C 0.738,0.332 0.312,0.217 0,0" id="path3498" style="fill:#000000;fill-opacity:1;fill-rule:nonzero;stroke:none">
      </path>
     </g>
     <g transform="translate(482.6691,373.3649)" id="g3500">
      <path d="m 0,0 0,1.652 0.974,0 0,0.597 -0.974,0 0,0.919 -0.75,0 0,-3.071 c 0,-0.445 0.144,-0.749 0.425,-0.9 0.243,-0.136 0.64,-0.2 1.197,-0.2 l 0.283,0 0,0.597 -0.167,0 C 0.052,-0.406 0,-0.25 0,0" id="path3502" style="fill:#000000;fill-opacity:1;fill-rule:nonzero;stroke:none">
      </path>
     </g>
     <g transform="translate(476.6285,373.4771)" id="g3504">
      <path d="m 0,0 c 0,-0.479 -0.723,-0.518 -0.945,-0.518 -0.481,0 -0.825,0.193 -0.864,0.479 l 0.006,3.095 -0.734,0 0,-3.056 c 0,-0.479 -0.721,-0.518 -0.943,-0.518 -0.507,0 -0.866,0.217 -0.866,0.529 l 0,3.045 -0.728,0 0,-3.052 c 0,-0.309 0.134,-0.575 0.394,-0.784 0.296,-0.229 0.7,-0.336 1.2,-0.336 0.567,0 0.993,0.146 1.284,0.387 0.026,-0.024 0.051,-0.051 0.051,-0.051 0.3,-0.229 0.7,-0.336 1.2,-0.336 1.238,0 1.673,0.576 1.673,1.116 l 0,3.056 L 0,3.056 0,0 z" id="path3506" style="fill:#000000;fill-opacity:1;fill-rule:nonzero;stroke:none">
      </path>
     </g>
     <g transform="translate(479.6387,372.3615)" id="g3508">
      <path d="m 0,0 c 0.534,0 0.966,0.106 1.273,0.325 0.288,0.22 0.429,0.486 0.429,0.795 l 0,1.026 C 1.702,2.594 1.557,2.901 1.273,3.05 1.03,3.187 0.641,3.255 0.084,3.255 l -1.296,0 0,-0.605 1.175,0 c 0.939,0 0.981,-0.151 0.981,-0.408 l 0,-0.023 -1.285,0 c -0.566,0 -0.935,-0.086 -1.16,-0.275 C -1.691,1.774 -1.793,1.493 -1.793,1.105 -1.793,0.571 -1.323,0 0,0 m -0.448,1.642 1.392,0 0,-0.515 C 0.944,0.814 0.557,0.598 0,0.598 c -0.501,0 -1.032,0.137 -1.032,0.522 0,0.214 0.073,0.522 0.584,0.522" id="path3510" style="fill:#000000;fill-opacity:1;fill-rule:nonzero;stroke:none">
      </path>
     </g>
     <g transform="translate(485.9293,375.6141)" id="g3512">
      <path d="m 0,0 c -0.537,0 -0.965,-0.115 -1.278,-0.329 -0.284,-0.214 -0.427,-0.482 -0.427,-0.794 l 0,-1.029 c 0,-0.445 0.143,-0.749 0.427,-0.9 0.246,-0.136 0.636,-0.201 1.194,-0.201 l 1.289,0 0,0.598 -1.175,0 c -0.929,0 -0.982,0.156 -0.982,0.406 l 0,0.031 1.285,0 c 0.57,0 0.939,0.081 1.162,0.268 0.198,0.17 0.299,0.454 0.299,0.837 C 1.794,-0.575 1.318,0 0,0 m 0.442,-1.647 -1.394,0 0,0.516 c 0,0.31 0.393,0.532 0.952,0.532 0.498,0 1.028,-0.142 1.028,-0.524 0,-0.217 -0.073,-0.524 -0.586,-0.524" id="path3514" style="fill:#000000;fill-opacity:1;fill-rule:nonzero;stroke:none">
      </path>
     </g>
     <g transform="translate(469.3481,374.0587)" id="g3516">
      <path d="m 0,0 c 0.027,0.121 0.041,0.23 0.041,0.32 l 0.724,0 C 0.765,0.09 0.733,-0.125 0.65,-0.336 0.568,-0.548 0.464,-0.741 0.341,-0.923 l 0.553,-0.774 -0.9,0 -0.239,0.32 c -0.098,-0.13 -0.241,-0.222 -0.421,-0.288 -0.178,-0.069 -0.372,-0.1 -0.587,-0.1 -0.262,0 -0.471,0.038 -0.642,0.116 -0.167,0.078 -0.3,0.176 -0.39,0.295 -0.095,0.122 -0.164,0.254 -0.196,0.396 -0.036,0.142 -0.053,0.271 -0.053,0.393 0,0.241 0.075,0.469 0.222,0.663 0.152,0.203 0.358,0.381 0.621,0.548 l -0.148,0.217 c -0.056,0.088 -0.106,0.162 -0.144,0.228 -0.038,0.065 -0.065,0.132 -0.088,0.19 -0.014,0.059 -0.027,0.115 -0.035,0.169 -0.011,0.055 -0.012,0.116 -0.012,0.171 0,0.14 0.023,0.264 0.079,0.37 0.049,0.108 0.125,0.201 0.216,0.274 0.099,0.08 0.211,0.14 0.34,0.181 0.134,0.041 0.277,0.062 0.433,0.062 0.18,0 0.335,-0.024 0.468,-0.07 0.131,-0.046 0.239,-0.107 0.325,-0.19 0.083,-0.08 0.146,-0.169 0.192,-0.28 0.04,-0.103 0.059,-0.218 0.059,-0.34 0,-0.212 -0.057,-0.402 -0.177,-0.57 -0.119,-0.167 -0.301,-0.342 -0.55,-0.522 l 0.626,-0.852 C -0.061,-0.227 -0.027,-0.12 0,0 m -1.629,-0.208 c -0.069,-0.108 -0.095,-0.232 -0.095,-0.357 0,-0.067 0.012,-0.131 0.036,-0.197 0.025,-0.065 0.066,-0.124 0.111,-0.181 0.043,-0.052 0.109,-0.098 0.186,-0.131 0.068,-0.032 0.159,-0.048 0.255,-0.048 0.218,0 0.403,0.088 0.542,0.265 l -0.705,1.002 c -0.16,-0.125 -0.278,-0.241 -0.33,-0.353 m 0.414,1.392 0.095,-0.14 0.154,0.128 c 0.096,0.081 0.166,0.16 0.207,0.236 0.039,0.074 0.057,0.152 0.057,0.227 0,0.115 -0.031,0.201 -0.098,0.263 -0.07,0.06 -0.157,0.092 -0.267,0.092 -0.099,0 -0.189,-0.032 -0.256,-0.09 -0.071,-0.061 -0.106,-0.142 -0.106,-0.256 0,-0.118 0.076,-0.271 0.214,-0.46" id="path3518" style="fill:#000000;fill-opacity:1;fill-rule:nonzero;stroke:none">
      </path>
     </g>
    </g>
   </g>
   <g transform="matrix(1.25,0,0,-1.25,-229.7561,949.97469)" id="g3520">
    <g id="g3522">
     <g id="g3528">
      <g id="g3530">
       <path d="m 526.605,387.059 c 0,-0.526 0.029,-1.044 0.08,-1.552 l 0,0 c 0.386,-3.66 2.106,-6.917 4.665,-9.275 l 0,0 c -0.314,0.519 -0.596,1.061 -0.842,1.62 l 0,0 c -2.11,2.482 -3.392,5.692 -3.392,9.207 l 0,0 c 0,0.354 0.018,0.701 0.046,1.051 l 0,0 c 0.256,3.501 1.775,6.65 4.107,8.989 l 0,0 c 2.561,2.568 6.101,4.158 10.01,4.158 l 0,0 c 2.136,0 4.169,-0.481 5.988,-1.332 l 0,0 c 0.611,-0.098 1.2,-0.23 1.788,-0.391 l 0,0 c -2.256,1.417 -4.92,2.237 -7.776,2.237 l 0,0 c -8.105,0 -14.674,-6.587 -14.674,-14.712" id="path3540" style="fill:url(#linearGradient4140);stroke:none">
       </path>
      </g>
     </g>
    </g>
   </g>
   <g transform="matrix(1.25,0,0,-1.25,-229.7561,949.97469)" id="g3542">
    <g id="g3544">
     <g id="g3550">
      <g id="g3552">
       <path d="m 529.105,384.348 c 0,-8.71 7.042,-15.767 15.726,-15.767 l 0,0 c 8.682,0 15.721,7.057 15.721,15.767 l 0,0 c 0,8.707 -7.039,15.763 -15.721,15.763 l 0,0 c -8.684,0 -15.726,-7.056 -15.726,-15.763 m 1.973,2.251 c 0,6.725 5.443,12.181 12.156,12.181 l 0,0 c 6.709,0 12.151,-5.456 12.151,-12.181 l 0,0 c 0,-6.728 -5.442,-12.183 -12.151,-12.183 l 0,0 c -6.713,0 -12.156,5.455 -12.156,12.183" id="path3562" style="fill:url(#linearGradient4142);stroke:none">
       </path>
      </g>
     </g>
    </g>
   </g>
   <g transform="matrix(1.25,0,0,-1.25,-229.7561,949.97469)" id="g3564">
    <g id="g3566">
     <g id="g3572">
      <g id="g3574">
       <path d="m 551.287,397.099 c 0.909,-0.913 1.693,-1.949 2.327,-3.08 l 0,0 c 1.157,-2.055 1.822,-4.429 1.822,-6.96 l 0,0 c 0,-3.921 -1.585,-7.47 -4.149,-10.037 l 0,0 c -2.56,-2.573 -6.101,-4.159 -10.008,-4.159 l 0,0 c -3.909,0 -7.449,1.586 -10.01,4.159 l 0,0 c -0.269,0.265 -0.52,0.543 -0.761,0.83 l 0,0 c 0.246,-0.559 0.528,-1.101 0.842,-1.62 l 0,0 c 2.613,-2.413 6.095,-3.883 9.929,-3.883 l 0,0 c 8.103,0 14.666,6.586 14.666,14.71 l 0,0 c 0,1.697 -0.29,3.322 -0.811,4.841 l 0,0 c -1.107,3.184 -3.277,5.87 -6.079,7.634 l 0,0 c -0.588,0.161 -1.177,0.293 -1.788,0.391 l 0,0 c 1.504,-0.706 2.863,-1.665 4.02,-2.826" id="path3582" style="fill:url(#linearGradient4144);stroke:none">
       </path>
      </g>
     </g>
    </g>
   </g>
   <g transform="matrix(1.25,0,0,-1.25,-229.7561,949.97469)" id="g3584">
    <g id="g3586">
     <g id="g3592">
      <g id="g3594">
       <path d="m 529.092,387.431 c 0,-0.538 0.031,-1.068 0.084,-1.589 l 0,0 c 0.094,0.913 0.251,1.805 0.492,2.671 l 0,0 c 0.259,3.589 1.813,6.818 4.208,9.215 l 0,0 c 2.626,2.635 6.254,4.266 10.268,4.266 l 0,0 c 4.011,0 7.637,-1.631 10.264,-4.266 l 0,0 c 0.931,-0.934 1.733,-1.999 2.384,-3.155 l 0,0 c 0.579,-0.682 1.101,-1.405 1.56,-2.174 l 0,0 c -2.051,5.895 -7.638,10.121 -14.208,10.121 l 0,0 c -8.31,0 -15.052,-6.755 -15.052,-15.089" id="path3602" style="fill:url(#linearGradient4146);stroke:none">
       </path>
      </g>
     </g>
    </g>
   </g>
   <g transform="matrix(1.25,0,0,-1.25,-229.7561,949.97469)" id="g3604">
    <g id="g3606">
     <g id="g3612">
      <g id="g3614">
       <path d="m 558.66,387.431 c 0,-4.017 -1.625,-7.654 -4.252,-10.291 l 0,0 c -2.627,-2.637 -6.253,-4.265 -10.264,-4.265 l 0,0 c -4.014,0 -7.642,1.628 -10.268,4.265 l 0,0 c -2.632,2.637 -4.25,6.274 -4.25,10.291 l 0,0 c 0,0.367 0.015,0.724 0.042,1.082 l 0,0 c -0.241,-0.866 -0.398,-1.758 -0.492,-2.671 l 0,0 c 0.8,-7.586 7.194,-13.493 14.968,-13.493 l 0,0 c 8.305,0 15.038,6.752 15.038,15.082 l 0,0 c 0,1.742 -0.29,3.412 -0.83,4.968 l 0,0 c -0.459,0.769 -0.981,1.492 -1.56,2.174 l 0,0 c 1.187,-2.11 1.868,-4.544 1.868,-7.142" id="path3622" style="fill:url(#linearGradient4148);stroke:none">
       </path>
      </g>
     </g>
    </g>
   </g>
  </g>
 </g>
</svg>